<svg xmlns="http://www.w3.org/2000/svg" xmlns:xlink="http://www.w3.org/1999/xlink" version="1.1" x="0px" y="0px" viewBox="0 0 100 125" style="enable-background:new 0 0 100 100;" xml:space="preserve"><style type="text/css">
	.st0{fill:#ff0000;}
</style><g><path class="st0" d="M50,5C32.1,5,17.5,19.6,17.5,37.5C17.5,68.8,50,95,50,95s32.5-26.2,32.5-57.5C82.5,19.6,67.9,5,50,5z M50,84.9   c-8.4-8.1-25-26.8-25-47.4c0-13.8,11.2-25,25-25s25,11.2,25,25C75,58,58.4,76.7,50,84.9z"/><polygon class="st0" points="52.5,22.5 47.5,22.5 47.5,35 35,35 35,40 47.5,40 47.5,52.5 52.5,52.5 52.5,40 65,40 65,35 52.5,35     "/></g></svg>