<?xml version="1.0" standalone="no"?>
<!DOCTYPE svg PUBLIC "-//W3C//DTD SVG 20010904//EN"
 "http://www.w3.org/TR/2001/REC-SVG-20010904/DTD/svg10.dtd">
<svg version="1.0" xmlns="http://www.w3.org/2000/svg"
 width="28" height="40" viewBox="0 0 512.000000 512.000000"
 preserveAspectRatio="xMidYMid meet">

<g transform="translate(0.000000,512.000000) scale(0.100000,-0.100000)"
fill="#000000" stroke="none">
<path d="M2400 4789 c-291 -26 -574 -126 -820 -290 -165 -110 -363 -318 -469
-492 -324 -532 -359 -1133 -95 -1673 66 -135 1144 -1807 1206 -1871 185 -188
491 -188 676 0 33 34 233 336 587 886 295 458 556 868 580 910 97 168 172 399
201 611 59 444 -72 911 -361 1285 -89 114 -256 271 -371 348 -246 164 -525
260 -829 286 -134 12 -168 12 -305 0z m432 -489 c286 -59 543 -212 715 -425
163 -204 255 -436 285 -722 59 -564 -314 -1126 -870 -1313 -248 -83 -548 -83
-803 0 -553 181 -930 749 -871 1313 50 476 289 840 681 1036 136 69 316 120
471 135 88 8 296 -5 392 -24z"/>
<path d="M2379 4160 c-159 -27 -367 -116 -490 -209 -237 -180 -398 -454 -438
-745 -15 -106 -14 -180 5 -305 69 -474 374 -813 834 -929 93 -23 124 -26 270
-26 138 0 181 4 260 23 471 115 774 452 846 941 85 581 -323 1141 -906 1246
-80 14 -305 17 -381 4z m550 -485 c189 -63 354 -121 368 -130 49 -33 63 -72
63 -178 0 -72 -5 -109 -17 -134 -18 -39 -65 -73 -100 -73 l-23 0 0 -184 0
-184 29 -7 c38 -8 88 -59 102 -104 6 -21 9 -85 7 -148 -3 -123 -13 -146 -78
-190 l-33 -23 -687 0 -687 0 -33 22 c-65 45 -75 68 -78 191 -2 63 1 127 7 148
14 45 64 96 102 104 l29 7 0 179 c0 162 -2 180 -17 185 -98 29 -123 72 -123
209 0 109 14 147 63 180 35 23 696 243 732 244 17 1 185 -51 374 -114z"/>
<path d="M2233 3523 l-313 -105 0 -54 0 -54 640 0 640 0 0 54 0 54 -318 106
c-174 58 -322 106 -327 105 -6 0 -151 -48 -322 -106z"/>
<path d="M2062 2973 l3 -178 75 0 75 0 3 178 2 177 -80 0 -80 0 2 -177z"/>
<path d="M2380 2970 l0 -180 180 0 180 0 0 180 0 180 -180 0 -180 0 0 -180z"/>
<path d="M2902 2973 l3 -178 75 0 75 0 3 178 2 177 -80 0 -80 0 2 -177z"/>
<path d="M1920 2555 l0 -75 640 0 640 0 0 75 0 75 -640 0 -640 0 0 -75z"/>
</g>
</svg>
