<?xml version="1.0" standalone="no"?>
<!DOCTYPE svg PUBLIC "-//W3C//DTD SVG 20010904//EN"
 "http://www.w3.org/TR/2001/REC-SVG-20010904/DTD/svg10.dtd">
<svg version="1.0" xmlns="http://www.w3.org/2000/svg"
 width="30" height="42" viewBox="0 0 512.000000 512.000000"
 preserveAspectRatio="xMidYMid meet">

<g transform="translate(0.000000,512.000000) scale(0.100000,-0.100000)"
fill="#000000" stroke="none">
<path d="M2405 5114 c-16 -2 -66 -9 -110 -15 -325 -42 -648 -177 -920 -383
-103 -77 -284 -258 -361 -361 -507 -670 -537 -1571 -75 -2260 44 -66 426 -564
850 -1107 l769 -988 785 1008 c431 554 812 1050 847 1102 502 764 395 1784
-255 2435 -296 295 -656 479 -1075 550 -91 15 -393 28 -455 19z m405 -314
c602 -91 1114 -525 1309 -1106 162 -487 92 -1015 -191 -1435 -54 -81 -1286
-1671 -1350 -1743 l-23 -25 -663 852 c-364 468 -680 879 -703 912 -302 450
-360 1014 -158 1530 157 403 512 757 916 915 159 63 272 89 483 114 58 7 300
-2 380 -14z"/>
<path d="M1845 4202 c-85 -24 -141 -56 -200 -116 -178 -178 -178 -455 -1 -630
28 -28 77 -65 108 -81 l58 -30 0 -462 0 -463 -150 0 -150 0 0 -150 0 -150
1050 0 1050 0 0 150 0 150 -150 0 -150 0 0 463 0 462 55 29 c234 122 311 425
164 645 -67 100 -170 168 -289 191 -32 6 -302 10 -694 9 -569 0 -648 -2 -701
-17z m1386 -304 c41 -23 79 -84 79 -126 0 -64 -62 -136 -126 -148 -74 -14
-156 41 -170 115 l-6 31 -149 0 -149 0 0 -27 c1 -137 105 -297 235 -364 l65
-34 0 -462 0 -463 -150 0 -150 0 0 450 0 450 -150 0 -150 0 0 -450 0 -450
-150 0 -150 0 0 464 0 464 31 13 c62 25 146 96 187 159 41 61 64 123 77 208
l7 42 -150 0 -150 0 -7 -30 c-13 -60 -86 -120 -147 -120 -12 0 -40 9 -63 20
-109 53 -111 210 -3 263 29 15 103 17 667 17 633 0 633 0 672 -22z"/>
</g>
</svg>
