<?xml version="1.0" standalone="no"?>
<!DOCTYPE svg PUBLIC "-//W3C//DTD SVG 20010904//EN"
 "http://www.w3.org/TR/2001/REC-SVG-20010904/DTD/svg10.dtd">
<svg version="1.0" xmlns="http://www.w3.org/2000/svg"
 width="512.000000pt" height="512.000000pt" viewBox="0 0 512.000000 512.000000"
 preserveAspectRatio="xMidYMid meet">

<g transform="translate(0.000000,512.000000) scale(0.100000,-0.100000)"
fill="#000000" stroke="none">
<path d="M992 4951 c-29 -10 -70 -32 -90 -48 -46 -37 -99 -113 -112 -163 -7
-25 -9 -751 -8 -2201 l3 -2164 23 -43 c35 -66 88 -119 150 -149 l57 -28 1545
0 1545 0 57 28 c62 30 115 83 150 149 l23 43 3 1760 2 1760 -537 537 -538 538
-1110 0 c-1049 -1 -1113 -2 -1163 -19z m2190 -600 c3 -474 4 -500 22 -520 19
-21 24 -21 518 -21 l498 0 0 -1695 c0 -1647 -1 -1697 -19 -1733 -24 -47 -56
-77 -103 -97 -33 -13 -206 -15 -1538 -15 -1332 0 -1505 2 -1538 15 -47 20 -79
50 -103 97 -19 37 -19 88 -17 2192 l3 2154 31 39 c16 21 50 48 74 61 l44 22
1063 0 1062 0 3 -499z m538 1 c225 -225 410 -412 410 -415 0 -4 -186 -6 -412
-5 l-413 3 -3 413 c-1 226 0 412 2 412 3 0 190 -184 416 -408z"/>
<path d="M1227 4572 c-23 -25 -21 -58 3 -82 20 -20 33 -20 880 -20 847 0 860
0 880 20 11 11 20 29 20 40 0 11 -9 29 -20 40 -20 20 -33 20 -883 20 -824 0
-865 -1 -880 -18z"/>
<path d="M1230 4200 c-25 -25 -26 -62 -2 -83 17 -15 74 -17 610 -17 l592 0 16
25 c21 32 12 68 -21 83 -19 9 -183 12 -600 12 -562 0 -575 0 -595 -20z"/>
<path d="M1515 3846 c-81 -20 -146 -56 -206 -115 -66 -67 -105 -143 -119 -238
-20 -129 18 -231 157 -423 38 -52 102 -144 143 -205 40 -60 78 -113 84 -117 6
-4 23 -8 38 -8 24 0 40 18 128 148 55 81 131 191 168 244 79 114 111 188 119
273 19 205 -137 405 -347 445 -66 12 -101 12 -165 -4z m216 -138 c69 -29 141
-110 164 -183 34 -109 7 -203 -100 -350 -33 -44 -87 -122 -122 -172 -35 -51
-65 -93 -67 -93 -2 0 -20 26 -41 58 -21 31 -75 109 -121 173 -109 151 -138
214 -137 299 1 217 221 356 424 268z"/>
<path d="M1536 3625 c-135 -48 -177 -218 -80 -325 97 -107 264 -86 332 40 19
37 23 56 20 105 -5 80 -41 135 -111 170 -57 28 -103 31 -161 10z m107 -117
c53 -28 64 -92 22 -133 -34 -35 -78 -33 -117 5 -25 26 -29 36 -24 63 7 37 47
77 77 77 11 0 30 -5 42 -12z"/>
<path d="M2218 3538 c-30 -24 -31 -56 -4 -83 l25 -25 586 0 c572 0 585 0 605
20 24 24 25 48 4 78 l-15 22 -593 0 c-459 0 -596 -3 -608 -12z"/>
<path d="M2218 3098 c-27 -22 -30 -53 -7 -81 l20 -27 834 0 834 0 20 27 c23
28 20 59 -7 81 -23 18 -1671 18 -1694 0z"/>
<path d="M1549 2639 c-130 -14 -263 -111 -320 -233 -81 -172 -53 -312 102
-526 34 -47 102 -144 150 -216 48 -72 96 -133 106 -136 39 -10 64 15 175 177
62 91 137 201 166 243 88 129 117 238 93 354 -46 222 -243 362 -472 337z m193
-145 c50 -26 108 -85 136 -138 22 -42 27 -65 27 -126 0 -98 -20 -139 -168
-348 -64 -89 -118 -168 -121 -175 -3 -8 -12 -3 -23 13 -243 335 -285 406 -287
493 -4 191 161 334 353 305 29 -5 66 -15 83 -24z"/>
<path d="M1530 2405 c-81 -37 -124 -108 -118 -196 13 -173 214 -249 334 -124
88 91 75 230 -29 302 -48 33 -134 42 -187 18z m127 -125 c28 -26 36 -52 24
-83 -22 -58 -102 -72 -136 -24 -52 74 47 168 112 107z"/>
<path d="M2222 2333 c-34 -14 -33 -82 2 -105 6 -4 275 -8 599 -8 574 0 587 0
607 20 11 11 20 29 20 40 0 11 -9 29 -20 40 -20 20 -33 20 -607 19 -324 0
-594 -3 -601 -6z"/>
<path d="M2224 1892 c-37 -24 -36 -91 1 -106 22 -8 1658 -8 1680 0 37 15 38
82 1 106 -14 10 -1668 10 -1682 0z"/>
<path d="M1472 1412 c-151 -54 -257 -183 -283 -342 -19 -121 19 -230 143 -403
43 -59 114 -161 158 -226 43 -66 88 -122 99 -126 11 -3 29 -1 40 5 11 6 67 78
123 161 57 82 131 191 165 240 34 50 72 116 84 147 76 202 -12 422 -208 519
-69 34 -84 38 -172 40 -74 3 -108 -1 -149 -15z m272 -132 c93 -47 166 -164
166 -265 0 -63 -34 -145 -96 -234 -29 -42 -86 -124 -126 -183 -40 -59 -76
-107 -80 -108 -4 0 -31 35 -59 78 -29 42 -80 115 -115 162 -143 197 -163 304
-81 441 33 56 102 111 161 129 58 17 176 7 230 -20z"/>
<path d="M1511 1188 c-50 -25 -96 -89 -106 -148 -12 -72 26 -155 93 -201 51
-35 142 -38 202 -7 114 59 145 211 63 309 -59 69 -166 90 -252 47z m154 -123
c51 -50 15 -135 -58 -135 -38 0 -74 28 -83 64 -6 26 17 81 38 89 34 14 80 6
103 -18z"/>
<path d="M2211 1103 c-23 -28 -20 -59 7 -80 12 -10 149 -13 608 -13 l593 0 15
22 c21 30 20 54 -4 78 -20 20 -33 20 -609 20 l-590 0 -20 -27z"/>
<path d="M2214 665 c-27 -27 -26 -59 4 -82 23 -19 1671 -19 1694 0 30 23 31
55 4 82 l-25 25 -826 0 -826 0 -25 -25z"/>
</g>
</svg>
