<?xml version="1.0" encoding="UTF-8"?>
<svg xmlns="http://www.w3.org/2000/svg" xmlns:xlink="http://www.w3.org/1999/xlink" width="23px" height="25px" viewBox="0 0 23 25" version="1.1">
<g id="surface1">
<path style=" stroke:none;fill-rule:evenodd;fill:rgb(0%,0%,0%);fill-opacity:1;" d="M 17.238281 14.054688 L 17.238281 10.929688 L 11.492188 10.929688 L 11.492188 7.804688 L 17.238281 7.804688 L 17.238281 4.6875 L 22.984375 9.371094 Z M 14.367188 18.738281 L 8.621094 18.738281 L 8.621094 4.683594 L 2.875 1.5625 L 14.367188 1.5625 L 14.367188 6.246094 L 15.804688 6.246094 L 15.804688 1.5625 C 15.804688 0.703125 15.160156 0 14.367188 0 L 1.4375 0 C 0.644531 0.00390625 0 0.699219 0 1.5625 L 0 19.332031 C 0 19.941406 0.316406 20.472656 0.789062 20.753906 L 8.621094 25 L 8.621094 20.300781 L 14.367188 20.300781 C 15.15625 20.300781 15.804688 19.597656 15.804688 18.738281 L 15.804688 12.492188 L 14.367188 12.492188 L 14.367188 18.742188 Z M 14.367188 18.738281 "/>
</g>
</svg>
