<svg xmlns:dc="http://purl.org/dc/elements/1.1/" xmlns:cc="http://creativecommons.org/ns#" xmlns:rdf="http://www.w3.org/1999/02/22-rdf-syntax-ns#" xmlns:svg="http://www.w3.org/2000/svg" xmlns="http://www.w3.org/2000/svg" xmlns:sodipodi="http://sodipodi.sourceforge.net/DTD/sodipodi-0.dtd" xmlns:inkscape="http://www.inkscape.org/namespaces/inkscape" version="1.1" x="0px" y="0px" viewBox="0 0 100 125"><g transform="translate(0,-952.36218)"><path style="color:#000000;enable-background:accumulate;" d="m 44.968775,960.36218 c -13.80823,0 -24.96875,11.1743 -24.96875,25 0,3.1751 0.92593,7.2078 2,10 l 23,49.00002 9.0625,-19.375 c -2.52474,-2.8303 -4.0625,-6.5489 -4.0625,-10.625 0,-8.8129 7.18713,-16.00002 16,-16.00002 0.19064,0 0.37344,0.025 0.5625,0.031 l 1.4375,-3.031 c 1.0801,-2.7932 2,-6.8235 2,-10 0,-13.8257 -11.22285,-25 -25.03125,-25 z m 0.0312,13 c 6.62803,0 12,5.3637 12,12 0,6.6364 -5.37197,12 -12,12 -6.62795,0 -12,-5.3636 -12,-12 0,-6.6363 5.37205,-12 12,-12 z m 21,27.00002 c -7.73199,0 -14,6.268 -14,14 0,7.732 6.26801,14 14,14 7.73198,0 14,-6.268 14,-14 0,-7.732 -6.26802,-14 -14,-14 z m 0,5 c 1.1046,0 2,0.8954 2,2 l 0,5 5,0 c 1.10457,0 2,0.8954 2,2 0,1.1046 -0.89543,2 -2,2 l -5,0 0,5 c 0,1.1046 -0.8954,2 -2,2 -1.1046,0 -2,-0.8954 -2,-2 l 0,-5 -5,0 c -1.10457,0 -2,-0.8954 -2,-2 0,-1.1046 0.89543,-2 2,-2 l 5,0 0,-5 c 0,-1.1046 0.8954,-2 2,-2 z" fill="#000000" stroke="none" marker="none" visibility="visible" display="inline" overflow="visible"/></g></svg>