<?xml version="1.0" standalone="no"?>
<!DOCTYPE svg PUBLIC "-//W3C//DTD SVG 20010904//EN"
 "http://www.w3.org/TR/2001/REC-SVG-20010904/DTD/svg10.dtd">
<svg version="1.0" xmlns="http://www.w3.org/2000/svg"
 width="30" height="42" viewBox="0 0 512.000000 512.000000"
 preserveAspectRatio="xMidYMid meet">

<g transform="translate(0.000000,512.000000) scale(0.100000,-0.100000)"
fill="#000000" stroke="none">
<path d="M2345 4538 c-540 -55 -1060 -354 -1388 -800 -491 -666 -515 -1578
-60 -2268 170 -258 415 -496 967 -944 110 -88 292 -236 405 -329 217 -176 249
-194 322 -182 47 8 72 26 323 234 110 92 278 230 371 306 554 455 769 663 927
899 471 703 446 1622 -62 2301 -419 559 -1101 855 -1805 783z m500 -282 c717
-121 1293 -696 1410 -1411 72 -434 -25 -879 -270 -1245 -282 -421 -736 -693
-1247 -749 -793 -87 -1554 403 -1807 1165 -121 364 -121 724 0 1088 211 635
764 1083 1439 1166 101 12 364 4 475 -14z"/>
<path d="M2587 3628 c20 -56 22 -161 4 -221 l-14 -48 -31 30 c-56 55 -140 50
-191 -10 -46 -55 -29 -154 33 -191 l26 -16 -35 -21 c-19 -11 -42 -21 -53 -21
-24 0 -140 121 -177 185 l-29 50 0 -55 c1 -194 86 -338 251 -425 59 -31 86
-39 144 -43 l70 -4 -3 -53 c-2 -29 1 -62 7 -74 11 -21 11 -21 -226 -23 l-238
-3 -3 -33 c-3 -27 1 -33 25 -42 47 -17 57 -26 67 -60 7 -22 18 -35 38 -42 l28
-10 0 -106 c0 -59 3 -137 7 -175 l6 -67 341 2 341 3 3 172 2 172 28 6 c22 4
31 15 42 48 13 36 21 43 52 51 30 8 37 14 41 40 2 17 3 34 0 39 -2 4 -65 7
-140 7 -125 0 -135 1 -127 18 19 42 16 101 -7 141 -12 23 -26 41 -31 41 -20 0
-4 19 41 48 76 50 132 123 172 228 l9 25 -29 -21 c-45 -31 -149 -77 -213 -94
-31 -8 -117 -17 -190 -20 l-133 -6 53 21 c67 28 145 97 165 146 49 124 18 274
-84 402 -22 28 -44 51 -49 51 -4 0 -1 -19 7 -42z"/>
<path d="M1798 2313 c-53 -33 -63 -103 -22 -152 l26 -31 -7 -296 -8 -295 -48
-25 c-54 -27 -74 -54 -65 -90 l6 -24 175 0 175 0 0 33 c0 38 -15 55 -77 86
l-43 21 0 256 0 257 33 -7 c256 -55 426 -70 749 -63 266 5 439 23 585 61 34 9
64 16 67 16 8 0 6 -292 -3 -425 l-6 -100 -45 -23 c-53 -28 -60 -37 -60 -79 l0
-33 175 0 175 0 0 33 c0 42 -8 52 -60 80 -45 23 -45 24 -51 88 -10 100 -10
549 0 549 5 0 16 16 26 35 13 29 14 42 5 70 -26 79 -108 99 -166 41 -38 -38
-43 -70 -18 -118 9 -17 12 -34 7 -38 -17 -17 -233 -51 -388 -61 -204 -14 -643
-5 -795 16 -151 20 -230 36 -230 45 0 4 9 15 20 25 14 12 20 31 20 57 0 50
-13 74 -50 93 -37 19 -68 19 -102 -2z"/>
<path d="M2260 1730 l0 -180 -70 -35 c-63 -32 -70 -38 -70 -65 l0 -30 510 0
510 0 0 31 c0 28 -6 33 -75 65 l-75 35 0 179 0 180 -365 0 -365 0 0 -180z"/>
</g>
</svg>
