<?xml version="1.0" standalone="no"?>
<!DOCTYPE svg PUBLIC "-//W3C//DTD SVG 20010904//EN"
 "http://www.w3.org/TR/2001/REC-SVG-20010904/DTD/svg10.dtd">
<svg version="1.0" xmlns="http://www.w3.org/2000/svg"
 width="28" height="40" viewBox="0 0 512.000000 512.000000"
 preserveAspectRatio="xMidYMid meet">

<g transform="translate(0.000000,512.000000) scale(0.100000,-0.100000)"
fill="#000000" stroke="none">
<path d="M2410 5104 c-123 -11 -288 -39 -408 -70 -781 -199 -1400 -831 -1587
-1619 -148 -620 -26 -1218 372 -1825 338 -515 873 -1028 1522 -1460 257 -171
245 -171 497 -4 940 623 1609 1390 1850 2121 201 609 120 1266 -224 1821 -340
548 -911 921 -1557 1016 -108 16 -377 28 -465 20z m510 -369 c305 -64 580
-193 811 -381 101 -82 266 -258 342 -364 138 -194 258 -476 307 -725 28 -138
38 -419 20 -562 -93 -757 -623 -1375 -1350 -1576 -180 -50 -269 -61 -490 -61
-171 0 -225 4 -323 22 -812 153 -1417 797 -1518 1615 -7 63 -10 164 -6 280 9
292 60 496 192 762 90 180 176 304 310 443 170 178 325 292 530 392 148 72
257 110 408 144 172 39 242 45 452 41 155 -3 213 -9 315 -30z"/>
<path d="M2302 4574 c-207 -33 -457 -126 -631 -235 -321 -202 -585 -537 -700
-889 -160 -491 -100 -992 172 -1427 l52 -83 198 0 197 0 -2 178 -3 177 -121 5
c-112 5 -123 7 -156 32 -45 35 -68 83 -68 146 0 56 14 80 116 203 l62 76 -27
21 c-57 42 -80 146 -47 210 9 17 47 69 86 116 38 47 70 90 70 95 0 6 -9 16
-19 23 -58 41 -84 157 -49 223 9 17 80 111 157 210 151 193 188 225 263 225
53 0 96 -21 139 -66 46 -50 272 -341 288 -372 18 -33 17 -122 -2 -157 -8 -17
-27 -41 -41 -54 -14 -14 -26 -29 -26 -34 0 -5 29 -44 65 -87 35 -43 74 -94 85
-112 40 -65 16 -182 -44 -222 l-26 -16 81 -102 c44 -56 85 -112 90 -125 26
-68 -3 -162 -63 -205 -29 -20 -46 -23 -155 -26 l-123 -4 0 -179 0 -179 440 0
440 0 0 180 0 180 -112 0 c-98 0 -118 3 -152 23 -73 41 -106 147 -71 220 9 18
49 73 90 122 l74 90 -23 20 c-59 49 -81 133 -55 202 6 15 46 71 89 125 l78 96
-30 29 c-16 15 -36 40 -44 55 -16 31 -18 115 -4 153 11 29 272 365 311 402 51
47 126 56 194 23 33 -16 72 -59 181 -198 143 -182 184 -247 184 -290 0 -47
-24 -106 -57 -138 -18 -19 -33 -35 -33 -38 0 -2 36 -48 79 -101 85 -105 106
-153 92 -215 -11 -48 -26 -75 -56 -98 -14 -11 -25 -23 -25 -26 0 -3 36 -51 80
-106 44 -56 83 -112 86 -126 11 -41 -2 -124 -23 -152 -44 -59 -65 -67 -196
-72 l-122 -5 -3 -178 -2 -177 197 0 198 0 52 82 c335 539 346 1202 29 1742
-240 408 -642 696 -1111 796 -134 29 -455 37 -593 14z"/>
<path d="M1833 3678 c-42 -47 -245 -310 -241 -313 2 -2 120 -4 263 -5 187 -1
259 1 257 9 -2 11 -250 331 -256 331 -1 0 -12 -10 -23 -22z"/>
<path d="M3130 3533 l-131 -168 258 -5 c142 -3 262 -2 266 1 8 7 -241 337
-255 338 -3 1 -65 -74 -138 -166z"/>
<path d="M1653 3098 c-111 -134 -143 -175 -143 -182 0 -3 156 -6 346 -6 198 0
344 4 342 9 -1 5 -49 66 -106 135 l-102 126 -135 0 -134 0 -68 -82z"/>
<path d="M3026 3051 c-58 -72 -106 -132 -106 -135 0 -3 156 -6 346 -6 232 0
345 3 342 10 -2 6 -48 67 -103 135 l-100 124 -136 1 -136 0 -107 -129z"/>
<path d="M1525 2609 c-59 -72 -105 -132 -102 -135 2 -2 199 -3 437 -2 l433 3
-108 133 -107 132 -223 0 -224 0 -106 -131z"/>
<path d="M2936 2608 l-109 -133 433 -3 c238 -1 435 0 438 2 2 3 -43 63 -100
133 l-105 128 -224 3 -225 2 -108 -132z"/>
<path d="M1770 2120 l0 -180 85 0 85 0 0 180 0 180 -85 0 -85 0 0 -180z"/>
<path d="M3180 2120 l0 -180 85 0 85 0 0 180 0 180 -85 0 -85 0 0 -180z"/>
<path d="M1350 1761 c0 -5 35 -42 78 -81 224 -205 498 -345 805 -412 89 -19
132 -22 327 -22 195 0 238 3 327 22 325 71 602 216 831 436 28 28 52 54 52 58
0 4 -544 8 -1210 8 -743 0 -1210 -4 -1210 -9z"/>
</g>
</svg>
