<?xml version="1.0" standalone="no"?>
<!DOCTYPE svg PUBLIC "-//W3C//DTD SVG 20010904//EN"
 "http://www.w3.org/TR/2001/REC-SVG-20010904/DTD/svg10.dtd">
<svg version="1.0" xmlns="http://www.w3.org/2000/svg"
 width="28" height="40" viewBox="0 0 512.00000 512.00000"
 preserveAspectRatio="xMidYMid meet">

<g transform="translate(0.000000,512.000000) scale(0.100000,-0.100000)"
fill="#000000" stroke="none">
<path d="M2410 4943 c-340 -33 -652 -145 -915 -328 -560 -390 -860 -1030 -806
-1722 40 -509 204 -968 512 -1428 241 -360 618 -752 1008 -1049 166 -126 350
-247 364 -240 67 39 301 207 416 298 789 629 1283 1382 1416 2159 101 596 -48
1173 -423 1638 -85 105 -250 261 -363 342 -183 131 -458 251 -679 296 -174 35
-381 49 -530 34z m428 -187 c634 -114 1129 -535 1336 -1135 202 -582 61 -1249
-358 -1700 -251 -270 -559 -444 -924 -523 -94 -20 -135 -23 -332 -23 -198 0
-238 3 -333 23 -761 163 -1300 771 -1367 1542 -45 515 170 1053 561 1401 250
224 573 375 889 418 47 6 99 13 115 15 60 9 332 -4 413 -18z"/>
<path d="M2390 4599 c-265 -30 -540 -139 -750 -297 -592 -447 -782 -1234 -459
-1899 43 -90 53 -103 74 -103 l25 0 0 276 c0 234 2 281 16 310 21 45 65 81
114 94 39 10 40 12 40 55 0 37 -5 47 -26 61 -55 37 -69 116 -37 215 27 85 90
167 179 235 43 33 94 79 111 103 32 41 33 46 33 135 0 83 2 95 23 113 26 24
51 30 89 20 42 -11 58 -53 58 -149 1 -53 5 -89 14 -100 11 -16 17 -8 54 66 51
103 146 208 251 279 148 99 271 236 271 301 0 89 56 142 121 115 36 -14 59
-59 59 -115 0 -27 11 -52 44 -98 55 -78 109 -127 218 -199 115 -76 205 -174
258 -282 38 -77 44 -84 56 -68 9 12 13 47 14 101 0 96 16 138 58 149 38 10 63
4 90 -20 20 -18 22 -30 22 -113 0 -89 1 -94 33 -136 18 -24 67 -69 109 -100
89 -67 142 -136 175 -225 39 -107 23 -209 -36 -228 -18 -5 -21 -15 -21 -55 0
-49 0 -49 39 -60 52 -14 90 -45 112 -94 17 -37 19 -70 19 -313 l0 -273 24 0
c21 0 31 14 74 103 284 583 170 1286 -282 1743 -56 55 -135 126 -176 157 -314
231 -710 339 -1090 296z"/>
<path d="M2483 4026 c-39 -40 -111 -100 -160 -133 -48 -33 -112 -86 -141 -117
-55 -58 -116 -171 -128 -238 l-6 -38 511 0 c421 0 511 2 511 13 0 25 -40 130
-67 176 -43 73 -111 139 -213 206 -58 37 -121 89 -161 133 -37 40 -68 72 -70
72 -2 0 -36 -33 -76 -74z"/>
<path d="M1759 3484 c-13 -14 -52 -46 -86 -70 -62 -45 -123 -122 -123 -156 0
-17 13 -18 205 -18 l205 0 0 55 0 56 -82 79 c-45 44 -84 80 -88 80 -4 0 -17
-12 -31 -26z"/>
<path d="M3242 3430 l-82 -79 0 -56 0 -55 206 0 206 0 -7 28 c-11 46 -55 100
-119 146 -34 24 -72 56 -85 70 -14 14 -27 26 -31 26 -4 0 -43 -36 -88 -80z"/>
<path d="M2132 2818 l3 -513 83 -3 82 -3 0 303 c0 178 4 318 10 340 14 48 55
97 97 114 44 19 262 19 306 0 42 -17 83 -66 97 -114 6 -22 10 -162 10 -340 l0
-303 83 3 82 3 3 513 2 512 -430 0 -430 0 2 -512z"/>
<path d="M1620 3030 l0 -40 170 0 170 0 0 40 0 40 -170 0 -170 0 0 -40z"/>
<path d="M3160 3030 l0 -40 170 0 170 0 0 40 0 40 -170 0 -170 0 0 -40z"/>
<path d="M2472 2603 l3 -298 85 0 85 0 3 298 2 297 -90 0 -90 0 2 -297z"/>
<path d="M1450 2560 l0 -260 85 0 85 0 0 134 c0 74 4 146 10 161 11 30 60 54
95 47 52 -9 60 -32 65 -191 l5 -146 83 -3 82 -3 0 261 0 260 -255 0 -255 0 0
-260z"/>
<path d="M3160 2560 l0 -261 83 3 82 3 5 146 c5 159 13 182 65 191 35 7 84
-17 95 -47 6 -15 10 -87 10 -161 l0 -134 85 0 85 0 0 260 0 260 -255 0 -255 0
0 -260z"/>
<path d="M1388 2083 c239 -284 595 -481 966 -532 99 -14 312 -14 413 0 367 49
725 246 965 532 l40 47 -1212 0 -1212 0 40 -47z m1657 -148 c37 -36 34 -86 -6
-119 l-31 -26 -448 0 -448 0 -31 26 c-40 33 -43 83 -6 119 l24 25 461 0 461 0
24 -25z"/>
</g>
</svg>
